<?xml version="1.0" encoding="UTF-8" standalone="no"?>
<!DOCTYPE svg PUBLIC "-//W3C//DTD SVG 1.1//EN" "http://www.w3.org/Graphics/SVG/1.1/DTD/svg11.dtd">
<svg xmlns="http://www.w3.org/2000/svg" version="1.1" viewBox="0.00 0.00 376.00 102.00">
<path fill="#fbb92d" d="
  M 45.65 0.00
  Q 65.78 10.94 85.91 22.86
  C 90.27 25.43 89.76 27.50 89.77 32.70
  Q 89.80 53.48 89.75 74.26
  Q 89.74 76.46 87.74 77.99
  Q 87.61 78.08 84.25 80.03
  Q 61.75 93.05 47.28 101.35
  Q 44.87 102.74 41.53 100.79
  Q 29.48 93.80 2.57 78.21
  Q 0.09 76.78 0.10 72.81
  Q 0.17 39.73 0.12 27.81
  Q 0.12 26.12 1.43 24.69
  Q 2.17 23.89 4.02 22.82
  Q 23.10 11.77 42.20 0.79
  Q 42.63 0.54 43.29 0.39
  Q 43.88 0.25 44.41 0.00
  L 45.65 0.00
  Z
  M 46.78 44.83
  L 79.35 26.05
  A 0.38 0.37 -45.3 0 0 79.35 25.40
  L 45.40 5.80
  Q 44.92 5.52 44.44 5.80
  L 9.47 25.98
  A 0.30 0.30 0.0 0 0 9.47 26.50
  L 45.30 47.20
  A 2.73 2.73 0.0 0 1 46.67 49.55
  Q 46.68 52.81 46.70 56.28
  Q 46.73 60.87 45.90 62.62
  C 44.40 65.81 41.53 66.78 37.88 66.74
  Q 30.34 66.67 25.97 66.74
  Q 25.45 66.75 25.45 67.27
  Q 25.45 68.16 25.46 81.76
  A 0.15 0.15 0.0 0 1 25.24 81.89
  L 20.31 79.02
  Q 20.06 78.86 20.06 78.57
  L 20.08 39.54
  Q 20.08 39.00 19.61 38.73
  L 5.96 30.80
  A 0.25 0.25 0.0 0 0 5.58 31.01
  L 5.58 73.04
  Q 5.58 73.65 6.11 73.96
  L 32.21 89.09
  A 0.20 0.20 0.0 0 0 32.51 88.92
  L 32.50 72.47
  A 1.12 1.11 0.0 0 1 33.63 71.35
  C 36.51 71.38 39.46 71.52 41.96 70.66
  Q 54.06 66.51 54.02 53.02
  Q 54.02 52.77 54.23 52.65
  L 59.06 49.89
  Q 59.25 49.77 59.28 49.99
  Q 61.01 64.34 50.25 72.67
  Q 49.72 73.08 50.35 73.32
  Q 57.76 76.19 62.11 83.16
  Q 62.98 84.55 63.59 85.35
  Q 63.74 85.56 63.96 85.43
  L 83.89 73.87
  A 0.76 0.74 -15.8 0 0 84.26 73.23
  L 84.27 30.14
  Q 84.27 29.54 83.74 29.84
  L 52.39 47.96
  Q 52.15 48.10 51.91 47.97
  L 46.78 45.18
  Q 46.47 45.00 46.78 44.83
  Z
  M 25.87 42.30
  A 0.18 0.16 42.1 0 0 25.70 42.30
  Q 25.50 42.42 25.50 42.75
  Q 25.46 44.89 25.46 60.95
  A 0.41 0.41 0.0 0 0 25.87 61.36
  L 39.09 61.34
  A 2.24 2.21 -89.9 0 0 41.29 59.12
  L 41.33 51.78
  Q 41.33 51.23 40.83 50.95
  Q 34.40 47.30 25.87 42.30
  Z
  M 41.64 94.53
  Q 43.71 95.69 44.78 96.19
  Q 45.22 96.40 45.62 96.15
  L 58.23 88.66
  Q 58.71 88.37 58.45 87.88
  Q 55.35 82.11 50.21 79.23
  Q 45.06 76.35 38.52 76.72
  Q 37.97 76.75 37.97 77.31
  L 38.17 91.98
  Q 38.17 92.45 38.57 92.71
  Q 39.56 93.36 41.64 94.53
  Z"
/>
<path fill="#fbb92d" d="
  M 44.94 32.87
  Q 38.49 32.88 33.04 28.20
  Q 31.15 26.57 30.32 24.73
  A 2.61 2.59 58.9 0 1 31.08 21.62
  Q 32.24 20.70 33.50 21.05
  Q 34.21 21.25 35.19 22.47
  Q 39.14 27.36 44.94 27.36
  Q 50.74 27.35 54.69 22.46
  Q 55.67 21.24 56.38 21.04
  Q 57.63 20.68 58.80 21.60
  A 2.61 2.59 -59.0 0 1 59.56 24.71
  Q 58.73 26.55 56.84 28.19
  Q 51.40 32.87 44.94 32.87
  Z"
/>
<rect fill="#1d1b1b" x="-2.93" y="-2.93" transform="translate(135.06,29.96) rotate(0.3)" width="5.86" height="5.86" rx="0.69"/>
<path fill="#1d1b1b" d="
  M 174.30 49.02
  L 174.37 57.05
  A 0.32 0.32 0.0 0 1 174.05 57.37
  L 168.65 57.37
  A 0.32 0.32 0.0 0 1 168.33 57.05
  L 168.34 28.47
  A 0.32 0.32 0.0 0 1 168.66 28.15
  L 174.03 28.20
  A 0.32 0.32 0.0 0 1 174.35 28.52
  L 174.33 42.84
  A 0.32 0.32 0.0 0 0 174.87 43.07
  L 182.45 35.80
  A 0.32 0.32 0.0 0 1 182.67 35.71
  L 189.05 35.67
  A 0.32 0.32 0.0 0 1 189.27 36.22
  L 179.33 45.59
  A 0.32 0.32 0.0 0 0 179.32 46.04
  L 189.81 56.87
  A 0.32 0.32 0.0 0 1 189.57 57.41
  L 183.12 57.35
  A 0.32 0.32 0.0 0 1 182.89 57.25
  L 174.85 48.80
  A 0.32 0.32 0.0 0 0 174.30 49.02
  Z"
/>
<path fill="#1d1b1b" d="
  M 263.28 39.55
  L 273.61 28.33
  A 0.33 0.33 0.0 0 1 273.85 28.23
  L 279.96 28.11
  A 0.33 0.33 0.0 0 1 280.21 28.66
  L 267.91 41.91
  A 0.33 0.33 0.0 0 0 267.90 42.35
  L 280.43 56.84
  A 0.33 0.33 0.0 0 1 280.18 57.39
  L 274.12 57.37
  A 0.33 0.33 0.0 0 1 273.87 57.25
  L 263.27 44.74
  A 0.33 0.33 0.0 0 0 262.69 44.95
  L 262.80 57.04
  A 0.33 0.33 0.0 0 1 262.47 57.37
  L 257.05 57.37
  A 0.33 0.33 0.0 0 1 256.72 57.04
  L 256.72 28.55
  A 0.33 0.33 0.0 0 1 257.05 28.22
  L 262.42 28.15
  A 0.33 0.33 0.0 0 1 262.76 28.49
  L 262.70 39.33
  A 0.33 0.33 0.0 0 0 263.28 39.55
  Z"
/>
<path fill="#1d1b1b" d="
  M 109.87 48.44
  L 110.03 57.03
  Q 110.03 57.35 109.72 57.35
  L 104.27 57.37
  A 0.36 0.35 0.0 0 1 103.91 57.02
  L 103.91 28.79
  A 0.58 0.57 -0.0 0 1 104.49 28.22
  Q 115.45 28.11 121.25 28.29
  Q 124.61 28.39 127.03 31.35
  Q 128.75 33.44 128.66 36.98
  Q 128.48 43.46 121.47 44.99
  Q 111.77 47.12 110.37 47.73
  A 0.85 0.72 -14.6 0 0 109.87 48.44
  Z
  M 110.17 42.61
  Q 115.90 41.65 118.86 40.84
  Q 121.07 40.24 121.90 39.16
  C 123.59 37.00 122.70 33.15 119.52 32.84
  Q 116.95 32.59 110.20 32.70
  A 0.29 0.29 0.0 0 0 109.92 32.99
  L 109.93 42.40
  A 0.21 0.21 0.0 0 0 110.17 42.61
  Z"
/>
<path fill="#1d1b1b" d="
  M 147.67 46.50
  C 147.67 54.02 156.63 56.37 160.82 50.58
  Q 161.12 50.17 161.49 50.49
  L 164.43 52.98
  Q 164.78 53.28 164.50 53.63
  Q 159.76 59.50 151.81 58.23
  C 145.86 57.28 141.73 52.52 141.73 46.50
  C 141.73 40.48 145.86 35.72 151.81 34.77
  Q 159.76 33.50 164.50 39.37
  Q 164.78 39.72 164.43 40.02
  L 161.49 42.51
  Q 161.12 42.83 160.82 42.42
  C 156.63 36.63 147.67 38.98 147.67 46.50
  Z"
/>
<path fill="#1d1b1b" d="
  M 305.35 46.51
  A 12.78 12.04 0.0 0 1 292.57 58.55
  A 12.78 12.04 0.0 0 1 279.79 46.51
  A 12.78 12.04 0.0 0 1 292.57 34.47
  A 12.78 12.04 0.0 0 1 305.35 46.51
  Z
  M 292.4868 53.9193
  A 7.39 6.82 90.8 0 0 299.4093 46.6252
  A 7.39 6.82 90.8 0 0 292.6932 39.1407
  A 7.39 6.82 90.8 0 0 285.7707 46.4348
  A 7.39 6.82 90.8 0 0 292.4868 53.9193
  Z"
/>
<path fill="#1d1b1b" d="
  M 330.39 50.61
  Q 330.64 52.18 332.59 52.98
  Q 338.81 55.53 343.58 50.70
  A 0.22 0.21 -48.1 0 1 343.87 50.68
  L 347.36 53.41
  Q 347.62 53.62 347.38 53.84
  Q 339.72 60.89 331.05 57.35
  C 321.77 53.55 321.24 40.60 329.96 36.06
  C 337.82 31.98 347.62 36.07 348.40 45.56
  Q 348.43 46.01 348.01 46.10
  L 330.78 50.00
  Q 330.31 50.11 330.39 50.61
  Z
  M 329.67 45.73
  L 342.17 42.78
  A 0.12 0.12 0.0 0 0 342.26 42.63
  L 342.25 42.59
  A 6.37 4.80 -13.3 0 0 334.94 39.39
  L 334.61 39.47
  A 6.37 4.80 -13.3 0 0 329.52 45.60
  L 329.53 45.64
  A 0.12 0.12 0.0 0 0 329.67 45.73
  Z"
/>
<path fill="#1d1b1b" d="
  M 376.00 35.76
  L 376.00 57.19
  L 371.30 57.28
  Q 370.78 57.29 370.68 56.77
  L 370.44 55.48
  Q 370.32 54.82 369.78 55.20
  Q 360.70 61.60 353.43 54.15
  Q 349.74 50.36 350.91 43.91
  Q 351.92 38.33 357.77 35.78
  Q 363.81 33.15 369.88 37.94
  Q 370.27 38.25 370.36 37.77
  L 370.68 36.23
  Q 370.78 35.72 371.29 35.73
  L 376.00 35.76
  Z
  M 362.9056 53.5200
  A 7.00 6.47 90.2 0 0 369.4000 46.5426
  A 7.00 6.47 90.2 0 0 362.9544 39.5200
  A 7.00 6.47 90.2 0 0 356.4600 46.4974
  A 7.00 6.47 90.2 0 0 362.9056 53.5200
  Z"
/>
<path fill="#1d1b1b" d="
  M 226.33 37.38
  C 226.84 37.17 227.75 36.36 228.42 36.07
  C 234.19 33.54 240.71 35.22 243.75 40.78
  C 249.96 52.12 236.52 63.37 226.25 55.56
  Q 225.77 55.19 225.77 55.78
  L 225.82 66.38
  A 0.67 0.67 0.0 0 1 225.13 67.05
  L 220.37 66.95
  Q 219.85 66.94 219.85 66.38
  L 219.85 36.19
  Q 219.85 35.72 220.31 35.71
  L 224.51 35.68
  Q 225.06 35.68 225.31 36.19
  Q 225.64 36.88 225.63 37.11
  Q 225.62 37.68 226.33 37.38
  Z
  M 232.8323 53.5093
  A 7.00 6.47 90.8 0 0 239.3994 46.6003
  A 7.00 6.47 90.8 0 0 233.0277 39.5107
  A 7.00 6.47 90.8 0 0 226.4606 46.4197
  A 7.00 6.47 90.8 0 0 232.8323 53.5093
  Z"
/>
<rect fill="#1d1b1b" x="132.11" y="35.72" width="5.88" height="21.64" rx="0.32"/>
<path fill="#1d1b1b" d="
  M 209.66 55.66
  Q 202.74 60.29 196.41 56.20
  Q 192.84 53.88 192.79 49.01
  Q 192.79 48.56 192.76 36.18
  Q 192.76 35.70 193.24 35.70
  L 198.28 35.72
  Q 198.81 35.72 198.81 36.24
  Q 198.79 42.82 198.78 47.52
  Q 198.76 52.69 202.83 53.37
  Q 205.28 53.78 207.14 52.41
  C 209.08 50.99 209.62 49.17 209.63 46.66
  Q 209.64 41.15 209.62 36.11
  Q 209.62 35.70 210.04 35.70
  L 215.01 35.69
  Q 215.55 35.69 215.55 36.25
  L 215.56 56.78
  Q 215.56 57.38 214.98 57.38
  L 211.11 57.39
  Q 210.58 57.39 210.48 56.88
  L 210.29 55.93
  Q 210.17 55.32 209.66 55.66
  Z"
/>
<path fill="#1d1b1b" d="
  M 314.24 37.56
  Q 315.69 36.10 317.06 35.84
  Q 318.77 35.50 323.43 35.74
  Q 323.73 35.75 323.67 36.05
  L 322.94 39.97
  Q 322.88 40.32 322.55 40.32
  C 321.13 40.34 317.16 39.86 315.73 41.26
  Q 314.18 42.78 314.07 45.25
  Q 313.99 47.18 314.08 57.03
  A 0.33 0.33 0.0 0 1 313.75 57.37
  L 308.36 57.35
  Q 308.13 57.35 308.13 57.11
  L 308.13 36.37
  Q 308.13 35.68 308.79 35.69
  L 312.74 35.69
  Q 313.45 35.69 313.44 36.41
  Q 313.42 37.03 313.59 37.43
  Q 313.82 37.98 314.24 37.56
  Z"
/>
<rect fill="#6d706e" fill-opacity="0.996" x="-0.78" y="-5.21" transform="translate(202.84,78.92) rotate(-0.2)" width="1.56" height="10.42" rx="0.57"/>
<path fill="#6d706e" fill-opacity="0.996" d="
  M 224.72 78.32
  Q 224.90 80.27 224.80 82.24
  A 0.70 0.69 -86.8 0 1 224.06 82.91
  L 223.77 82.89
  A 0.42 0.40 -88.6 0 1 223.39 82.47
  L 223.34 79.55
  Q 223.33 79.03 222.81 79.03
  L 220.28 79.00
  Q 219.77 78.99 219.49 79.51
  Q 216.97 84.22 212.18 81.40
  Q 210.72 80.54 210.71 78.41
  Q 210.69 76.28 212.14 75.40
  Q 216.89 72.52 219.47 77.19
  Q 219.76 77.71 220.27 77.69
  L 222.80 77.63
  Q 223.32 77.62 223.32 77.10
  L 223.33 74.18
  A 0.42 0.40 87.8 0 1 223.71 73.76
  L 224.00 73.73
  A 0.70 0.69 86.0 0 1 224.75 74.39
  Q 224.87 76.36 224.72 78.32
  Z
  M 218.1298 78.3540
  A 2.95 2.66 -0.7 0 0 215.1475 75.7302
  A 2.95 2.66 -0.7 0 0 212.2302 78.4260
  A 2.95 2.66 -0.7 0 0 215.2125 81.0498
  A 2.95 2.66 -0.7 0 0 218.1298 78.3540
  Z"
/>
<rect fill="#6d706e" fill-opacity="0.996" x="265.66" y="73.71" width="1.48" height="17.62" rx="0.41"/>
<path fill="#6d706e" fill-opacity="0.996" d="
  M 287.80 80.24
  L 290.12 80.36
  A 0.30 0.30 0.0 0 1 290.40 80.67
  L 290.39 81.40
  A 0.30 0.30 0.0 0 1 290.10 81.69
  L 287.79 81.76
  A 0.30 0.30 0.0 0 0 287.50 82.06
  L 287.52 91.07
  A 0.30 0.30 0.0 0 1 287.19 91.37
  L 286.22 91.28
  A 0.30 0.30 0.0 0 1 285.95 90.98
  L 285.96 74.06
  A 0.30 0.30 0.0 0 1 286.25 73.76
  L 287.21 73.72
  A 0.30 0.30 0.0 0 1 287.52 74.02
  L 287.52 79.95
  A 0.30 0.30 0.0 0 0 287.80 80.24
  Z"
/>
<path fill="#6d706e" fill-opacity="0.996" d="
  M 190.54 76.08
  Q 190.33 76.17 190.06 76.12
  A 0.52 0.46 88.3 0 1 189.69 75.72
  L 189.61 75.34
  A 0.54 0.51 -5.6 0 1 190.15 74.72
  L 199.02 74.73
  A 0.48 0.47 5.0 0 1 199.50 75.28
  L 199.41 75.73
  Q 199.33 76.15 199.01 76.13
  L 198.26 76.08
  Q 197.56 76.03 197.56 76.74
  L 197.58 80.90
  Q 197.59 81.46 198.16 81.43
  L 199.69 81.34
  Q 200.17 81.32 200.23 81.76
  L 200.28 82.06
  A 0.55 0.54 -5.1 0 1 199.75 82.68
  L 190.11 82.98
  Q 189.76 82.99 189.68 82.67
  L 189.58 82.28
  Q 189.43 81.66 190.04 81.64
  L 190.85 81.61
  A 0.61 0.54 89.0 0 0 191.37 81.00
  L 191.32 76.52
  Q 191.31 75.74 190.54 76.08
  Z
  M 196.1440 76.5730
  A 0.50 0.50 0.0 0 0 195.6448 76.0721
  L 193.2648 76.0679
  A 0.50 0.50 0.0 0 0 192.7640 76.5671
  L 192.7560 81.1070
  A 0.50 0.50 0.0 0 0 193.2552 81.6079
  L 195.6352 81.6121
  A 0.50 0.50 0.0 0 0 196.1360 81.1129
  L 196.1440 76.5730
  Z"
/>
<path fill="#6d706e" fill-opacity="0.996" d="
  M 283.10 83.01
  A 4.02 4.02 0.0 0 1 279.08 87.03
  L 278.48 87.03
  A 4.02 4.02 0.0 0 1 274.46 83.01
  L 274.46 78.99
  A 4.02 4.02 0.0 0 1 278.48 74.97
  L 279.08 74.97
  A 4.02 4.02 0.0 0 1 283.10 78.99
  L 283.10 83.01
  Z
  M 281.5766 79.0851
  A 2.64 2.64 0.0 0 0 278.9320 76.4497
  L 278.5520 76.4503
  A 2.64 2.64 0.0 0 0 275.9166 79.0949
  L 275.9234 82.9549
  A 2.64 2.64 0.0 0 0 278.5680 85.5903
  L 278.9480 85.5897
  A 2.64 2.64 0.0 0 0 281.5834 82.9451
  L 281.5766 79.0851
  Z"
/>
<path fill="#6d706e" fill-opacity="0.996" d="
  M 255.39 81.90
  L 255.44 85.46
  A 0.30 0.30 0.0 0 0 255.76 85.76
  L 263.62 85.41
  A 0.30 0.30 0.0 0 1 263.91 85.83
  L 263.54 86.67
  A 0.30 0.30 0.0 0 1 263.27 86.85
  L 254.22 87.17
  A 0.30 0.30 0.0 0 1 253.91 86.87
  L 253.87 80.48
  A 0.30 0.30 0.0 0 1 254.17 80.17
  L 259.95 80.07
  A 0.30 0.30 0.0 0 0 260.25 79.76
  L 260.20 76.89
  A 0.30 0.30 0.0 0 0 259.91 76.60
  L 254.12 76.51
  A 0.30 0.30 0.0 0 1 253.83 76.15
  L 253.99 75.38
  A 0.30 0.30 0.0 0 1 254.28 75.14
  L 261.41 75.10
  A 0.30 0.30 0.0 0 1 261.71 75.40
  L 261.74 81.20
  A 0.30 0.30 0.0 0 1 261.44 81.50
  L 255.68 81.60
  A 0.30 0.30 0.0 0 0 255.39 81.90
  Z"
/>
<path fill="#6d706e" fill-opacity="0.996" d="
  M 243.74 79.61
  L 243.70 76.89
  A 0.29 0.29 0.0 0 0 243.41 76.60
  L 233.82 76.60
  A 0.29 0.29 0.0 0 1 233.53 76.29
  L 233.58 75.54
  A 0.29 0.29 0.0 0 1 233.87 75.27
  L 245.15 75.32
  A 0.29 0.29 0.0 0 1 245.44 75.63
  L 244.91 85.15
  A 0.29 0.29 0.0 0 1 244.62 85.43
  L 243.39 85.45
  A 0.29 0.29 0.0 0 1 243.10 85.12
  L 243.66 81.60
  A 0.29 0.29 0.0 0 0 243.38 81.26
  L 233.64 81.37
  A 0.29 0.29 0.0 0 1 233.34 81.06
  L 233.38 80.21
  A 0.29 0.29 0.0 0 1 233.67 79.93
  L 243.45 79.90
  A 0.29 0.29 0.0 0 0 243.74 79.61
  Z"
/>
<path fill="#6d706e" fill-opacity="0.996" d="
  M 239.39 87.55
  L 247.22 87.53
  A 0.30 0.30 0.0 0 1 247.52 87.83
  L 247.51 88.62
  A 0.30 0.30 0.0 0 1 247.21 88.92
  L 231.79 88.89
  A 0.30 0.30 0.0 0 1 231.49 88.57
  L 231.54 87.79
  A 0.30 0.30 0.0 0 1 231.84 87.51
  L 237.20 87.53
  A 0.30 0.30 0.0 0 0 237.50 87.23
  L 237.45 83.63
  A 0.30 0.30 0.0 0 1 237.75 83.33
  L 238.80 83.33
  A 0.30 0.30 0.0 0 1 239.10 83.63
  L 239.09 87.25
  A 0.30 0.30 0.0 0 0 239.39 87.55
  Z"
/>
<path fill="#6d706e" fill-opacity="0.996" d="
  M 219.36 91.37
  Q 214.77 91.37 214.55 91.32
  Q 213.93 91.17 213.93 90.76
  L 213.96 84.28
  A 0.62 0.59 -89.5 0 1 214.56 83.66
  Q 215.65 83.67 215.36 85.35
  A 0.66 0.66 0.0 0 0 216.02 86.12
  Q 217.56 86.09 219.36 86.09
  Q 221.17 86.09 222.71 86.13
  A 0.66 0.66 0.0 0 0 223.37 85.36
  Q 223.08 83.68 224.17 83.67
  A 0.62 0.59 89.7 0 1 224.77 84.29
  L 224.79 90.77
  Q 224.79 91.18 224.17 91.33
  Q 223.95 91.38 219.36 91.37
  Z
  M 223.3711 88.0670
  A 0.62 0.62 0.0 0 0 222.7522 87.4459
  L 215.9922 87.4341
  A 0.62 0.62 0.0 0 0 215.3711 88.0530
  L 215.3689 89.3530
  A 0.62 0.62 0.0 0 0 215.9878 89.9741
  L 222.7478 89.9859
  A 0.62 0.62 0.0 0 0 223.3689 89.3670
  L 223.3711 88.0670
  Z"
/>
<path fill="#6d706e" fill-opacity="0.996" d="
  M 201.78 86.33
  L 192.60 86.30
  A 0.31 0.31 0.0 0 1 192.30 85.96
  L 192.38 85.14
  A 0.31 0.31 0.0 0 1 192.69 84.86
  L 203.26 84.98
  A 0.31 0.31 0.0 0 1 203.57 85.28
  L 203.66 91.14
  A 0.31 0.31 0.0 0 1 203.34 91.45
  L 202.25 91.39
  A 0.31 0.31 0.0 0 1 201.96 91.07
  L 202.09 86.65
  A 0.31 0.31 0.0 0 0 201.78 86.33
  Z"
/>
</svg>
